<mxfile host="app.diagrams.net" modified="2021-11-04T17:20:27.682Z" agent="5.0 (Windows NT 6.3; Win64; x64) AppleWebKit/537.36 (KHTML, like Gecko) Chrome/95.0.4638.69 Safari/537.36" etag="z9h9y2gCYUAxpi-aE8I5" version="15.6.8" type="github">
  <diagram id="KmguIjsDg325nGv9dmGO" name="Page-1">
    <mxGraphModel dx="868" dy="482" grid="1" gridSize="10" guides="1" tooltips="1" connect="1" arrows="1" fold="1" page="1" pageScale="1" pageWidth="827" pageHeight="1169" math="0" shadow="0">
      <root>
        <mxCell id="0" />
        <mxCell id="1" parent="0" />
        <mxCell id="hTNZJ2nVE8b75Jecg00O-1" value="&lt;font style=&quot;font-size: 24px&quot;&gt;&lt;b&gt;Source&lt;/b&gt;&lt;/font&gt;" style="text;html=1;align=center;verticalAlign=middle;resizable=0;points=[];autosize=1;strokeColor=none;fillColor=none;" vertex="1" parent="1">
          <mxGeometry x="170" y="50" width="100" height="20" as="geometry" />
        </mxCell>
        <mxCell id="hTNZJ2nVE8b75Jecg00O-2" value="&lt;div style=&quot;text-align: center&quot;&gt;&lt;span&gt;&lt;font face=&quot;helvetica&quot;&gt;&lt;b&gt;Storage&lt;/b&gt;&lt;/font&gt;&lt;/span&gt;&lt;/div&gt;" style="text;whiteSpace=wrap;html=1;fontSize=24;" vertex="1" parent="1">
          <mxGeometry x="390" y="40" width="110" height="40" as="geometry" />
        </mxCell>
        <mxCell id="hTNZJ2nVE8b75Jecg00O-4" value="&lt;b style=&quot;color: rgb(0 , 0 , 0) ; font-family: &amp;#34;helvetica&amp;#34; ; font-size: 24px ; font-style: normal ; letter-spacing: normal ; text-align: center ; text-indent: 0px ; text-transform: none ; word-spacing: 0px ; background-color: rgb(248 , 249 , 250)&quot;&gt;Business&lt;/b&gt;" style="text;whiteSpace=wrap;html=1;fontSize=24;" vertex="1" parent="1">
          <mxGeometry x="620" y="40" width="110" height="40" as="geometry" />
        </mxCell>
        <mxCell id="hTNZJ2nVE8b75Jecg00O-5" value="" style="endArrow=none;html=1;rounded=0;fontSize=24;strokeWidth=4;" edge="1" parent="1">
          <mxGeometry width="50" height="50" relative="1" as="geometry">
            <mxPoint x="560" y="520" as="sourcePoint" />
            <mxPoint x="560" y="30" as="targetPoint" />
          </mxGeometry>
        </mxCell>
        <mxCell id="hTNZJ2nVE8b75Jecg00O-6" value="" style="endArrow=none;html=1;rounded=0;fontSize=24;strokeWidth=4;" edge="1" parent="1">
          <mxGeometry width="50" height="50" relative="1" as="geometry">
            <mxPoint x="320" y="520" as="sourcePoint" />
            <mxPoint x="320" y="30" as="targetPoint" />
          </mxGeometry>
        </mxCell>
        <mxCell id="hTNZJ2nVE8b75Jecg00O-7" value="&lt;font style=&quot;font-size: 14px&quot;&gt;продажи&lt;/font&gt;" style="shape=cylinder3;whiteSpace=wrap;html=1;boundedLbl=1;backgroundOutline=1;size=15;fontSize=24;fillColor=#dae8fc;strokeColor=#6c8ebf;" vertex="1" parent="1">
          <mxGeometry x="160" y="80" width="60" height="80" as="geometry" />
        </mxCell>
        <mxCell id="hTNZJ2nVE8b75Jecg00O-8" value="Google Analytics API" style="shape=image;html=1;verticalLabelPosition=bottom;verticalAlign=top;imageAspect=0;image=img/clipart/Gear_128x128.png;fontSize=14;" vertex="1" parent="1">
          <mxGeometry x="170" y="210" width="50" height="60" as="geometry" />
        </mxCell>
        <mxCell id="hTNZJ2nVE8b75Jecg00O-9" value="&lt;span style=&quot;font-size: 14px&quot;&gt;склад&lt;/span&gt;" style="shape=cylinder3;whiteSpace=wrap;html=1;boundedLbl=1;backgroundOutline=1;size=15;fontSize=24;fillColor=#ffe6cc;strokeColor=#d79b00;" vertex="1" parent="1">
          <mxGeometry x="165" y="320" width="60" height="80" as="geometry" />
        </mxCell>
        <mxCell id="hTNZJ2nVE8b75Jecg00O-10" value="&lt;span style=&quot;font-size: 14px&quot;&gt;CRM&lt;/span&gt;" style="shape=cylinder3;whiteSpace=wrap;html=1;boundedLbl=1;backgroundOutline=1;size=15;fontSize=24;fillColor=#f5f5f5;strokeColor=#666666;fontColor=#333333;" vertex="1" parent="1">
          <mxGeometry x="165" y="450" width="60" height="70" as="geometry" />
        </mxCell>
        <mxCell id="hTNZJ2nVE8b75Jecg00O-11" value="Хранилище данных" style="strokeWidth=2;html=1;shape=mxgraph.flowchart.database;whiteSpace=wrap;fontSize=14;fillColor=#1ba1e2;fontColor=#ffffff;strokeColor=#006EAF;" vertex="1" parent="1">
          <mxGeometry x="340" y="190" width="210" height="160" as="geometry" />
        </mxCell>
        <mxCell id="hTNZJ2nVE8b75Jecg00O-13" value="" style="endArrow=none;html=1;rounded=0;fontSize=14;" edge="1" parent="1">
          <mxGeometry width="50" height="50" relative="1" as="geometry">
            <mxPoint x="280" y="490" as="sourcePoint" />
            <mxPoint x="280" y="120" as="targetPoint" />
          </mxGeometry>
        </mxCell>
        <mxCell id="hTNZJ2nVE8b75Jecg00O-14" value="" style="endArrow=classic;html=1;rounded=0;fontSize=14;entryX=0;entryY=0.5;entryDx=0;entryDy=0;entryPerimeter=0;" edge="1" parent="1" target="hTNZJ2nVE8b75Jecg00O-11">
          <mxGeometry width="50" height="50" relative="1" as="geometry">
            <mxPoint x="280" y="270" as="sourcePoint" />
            <mxPoint x="330" y="260" as="targetPoint" />
          </mxGeometry>
        </mxCell>
        <mxCell id="hTNZJ2nVE8b75Jecg00O-15" value="" style="endArrow=none;html=1;rounded=0;fontSize=14;strokeWidth=1;exitX=1;exitY=0.5;exitDx=0;exitDy=0;exitPerimeter=0;" edge="1" parent="1" source="hTNZJ2nVE8b75Jecg00O-7">
          <mxGeometry width="50" height="50" relative="1" as="geometry">
            <mxPoint x="240" y="160" as="sourcePoint" />
            <mxPoint x="280" y="120" as="targetPoint" />
          </mxGeometry>
        </mxCell>
        <mxCell id="hTNZJ2nVE8b75Jecg00O-16" value="" style="endArrow=none;html=1;rounded=0;fontSize=14;strokeWidth=1;exitX=1;exitY=0.5;exitDx=0;exitDy=0;" edge="1" parent="1" source="hTNZJ2nVE8b75Jecg00O-8">
          <mxGeometry width="50" height="50" relative="1" as="geometry">
            <mxPoint x="220" y="280" as="sourcePoint" />
            <mxPoint x="280" y="240" as="targetPoint" />
          </mxGeometry>
        </mxCell>
        <mxCell id="hTNZJ2nVE8b75Jecg00O-17" value="" style="endArrow=none;html=1;rounded=0;fontSize=14;strokeWidth=1;exitX=1;exitY=0.5;exitDx=0;exitDy=0;exitPerimeter=0;" edge="1" parent="1" source="hTNZJ2nVE8b75Jecg00O-9">
          <mxGeometry width="50" height="50" relative="1" as="geometry">
            <mxPoint x="230" y="385" as="sourcePoint" />
            <mxPoint x="280" y="360" as="targetPoint" />
          </mxGeometry>
        </mxCell>
        <mxCell id="hTNZJ2nVE8b75Jecg00O-18" value="" style="endArrow=none;html=1;rounded=0;fontSize=14;strokeWidth=1;exitX=1;exitY=0.588;exitDx=0;exitDy=0;exitPerimeter=0;" edge="1" parent="1" source="hTNZJ2nVE8b75Jecg00O-10">
          <mxGeometry width="50" height="50" relative="1" as="geometry">
            <mxPoint x="230" y="520" as="sourcePoint" />
            <mxPoint x="280" y="490" as="targetPoint" />
          </mxGeometry>
        </mxCell>
      </root>
    </mxGraphModel>
  </diagram>
</mxfile>
